# xmcd CD database file
#
# Track frame offsets:
#	150
#	19589
#	40291
#	60506
#
# Disc length: 1146 seconds
#
# Revision: 0
# Processed by: cddbd v1.5.2PL0 Copyright (c) Steve Scherf et al.
# Submitted via: CDex 1.70beta2
#
DISCID=28047804
DTITLE=Lilly Among Thorns - Little Music Massage
DYEAR=2010
DGENRE=Blues
TTITLE0=Lilly Among Thorns - 01 Song Three
TTITLE1=Lilly Among Thorns - 02 Boom-Bang!
TTITLE2=Lilly Among Thorns - 03 Safer
TTITLE3=Lilly Among Thorns - 04 Beauty
EXTD=YEAR: 2010
EXTT0=
EXTT1=
EXTT2=
EXTT3=
PLAYORDER=
